<svg xmlns="http://www.w3.org/2000/svg" width="24" height="24" viewBox="0 0 24 24" fill="none" stroke="#6b7280" stroke-width="1.8" stroke-linecap="round" stroke-linejoin="round" aria-hidden="true">
  <path d="M13.8476 13.317 9.5052 18.2798c-.7969.9107-2.2135.9107-3.0104 0L2.1524 13.317c-.6598-.754-.6598-1.88 0-2.634l4.3424-4.9628c.7969-.9107 2.2135-.9107 3.0104 0l4.3424 4.9628c.6598.754.6598 1.88 0 2.634Z"/>
  <path d="m13 19 4.8844-5.6984c.6421-.7489.6421-1.8549 0-2.6038L13 5"/>
  <path d="m17 19 4.8844-5.6984c.6421-.7489.6421-1.8549 0-2.6038L17 5"/>
</svg>
