<svg xmlns="http://www.w3.org/2000/svg" viewBox="0 0 1200 380">
  <defs>
    <clipPath id="channels-light-svg-diagram"><rect x="486" y="96" width="636" height="196"/></clipPath>
  </defs>
  <rect width="1200" height="380" fill="#f1f0ed"/>
  <path d="M0 0V380" stroke="#dedbd4" opacity="0.28"/><path d="M40 0V380" stroke="#dedbd4" opacity="0.28"/><path d="M80 0V380" stroke="#dedbd4" opacity="0.28"/><path d="M120 0V380" stroke="#dedbd4" opacity="0.28"/><path d="M160 0V380" stroke="#dedbd4" opacity="0.28"/><path d="M200 0V380" stroke="#dedbd4" opacity="0.28"/><path d="M240 0V380" stroke="#dedbd4" opacity="0.28"/><path d="M280 0V380" stroke="#dedbd4" opacity="0.28"/><path d="M320 0V380" stroke="#dedbd4" opacity="0.28"/><path d="M360 0V380" stroke="#dedbd4" opacity="0.28"/><path d="M400 0V380" stroke="#dedbd4" opacity="0.28"/><path d="M440 0V380" stroke="#dedbd4" opacity="0.28"/><path d="M480 0V380" stroke="#dedbd4" opacity="0.28"/><path d="M520 0V380" stroke="#dedbd4" opacity="0.28"/><path d="M560 0V380" stroke="#dedbd4" opacity="0.28"/><path d="M600 0V380" stroke="#dedbd4" opacity="0.28"/><path d="M640 0V380" stroke="#dedbd4" opacity="0.28"/><path d="M680 0V380" stroke="#dedbd4" opacity="0.28"/><path d="M720 0V380" stroke="#dedbd4" opacity="0.28"/><path d="M760 0V380" stroke="#dedbd4" opacity="0.28"/><path d="M800 0V380" stroke="#dedbd4" opacity="0.28"/><path d="M840 0V380" stroke="#dedbd4" opacity="0.28"/><path d="M880 0V380" stroke="#dedbd4" opacity="0.28"/><path d="M920 0V380" stroke="#dedbd4" opacity="0.28"/><path d="M960 0V380" stroke="#dedbd4" opacity="0.28"/><path d="M1000 0V380" stroke="#dedbd4" opacity="0.28"/><path d="M1040 0V380" stroke="#dedbd4" opacity="0.28"/><path d="M1080 0V380" stroke="#dedbd4" opacity="0.28"/><path d="M1120 0V380" stroke="#dedbd4" opacity="0.28"/><path d="M1160 0V380" stroke="#dedbd4" opacity="0.28"/><path d="M1200 0V380" stroke="#dedbd4" opacity="0.28"/><path d="M0 0H1200" stroke="#dedbd4" opacity="0.28"/><path d="M0 40H1200" stroke="#dedbd4" opacity="0.28"/><path d="M0 80H1200" stroke="#dedbd4" opacity="0.28"/><path d="M0 120H1200" stroke="#dedbd4" opacity="0.28"/><path d="M0 160H1200" stroke="#dedbd4" opacity="0.28"/><path d="M0 200H1200" stroke="#dedbd4" opacity="0.28"/><path d="M0 240H1200" stroke="#dedbd4" opacity="0.28"/><path d="M0 280H1200" stroke="#dedbd4" opacity="0.28"/><path d="M0 320H1200" stroke="#dedbd4" opacity="0.28"/><path d="M0 360H1200" stroke="#dedbd4" opacity="0.28"/>
  <rect x="32" y="32" width="1136" height="316" fill="none" stroke="#c1beb6" stroke-width="1"/>
  <path d="M32 86H1168M432 32V348M32 300H1168" stroke="#c1beb6" stroke-width="1"/>

  <text x="56" y="64" font-family="JetBrains Mono, SFMono-Regular, Menlo, Consolas, monospace" font-size="12" fill="#585858" opacity="0.9" text-anchor="start">OPEN WEBUI</text>
  <text x="56" y="110" font-family="JetBrains Mono, SFMono-Regular, Menlo, Consolas, monospace" font-size="12" fill="#ff6a00" opacity="1" text-anchor="start">CONVERSATION ROUTING</text>
  <text x="54" y="160" font-family="Helvetica Neue, Helvetica, Arial, sans-serif" font-size="36" font-weight="400" fill="#111111" opacity="1" text-anchor="start">Channels</text>
  <text x="58" y="198" font-family="Helvetica Neue, Helvetica, Arial, sans-serif" font-size="17" font-weight="350" fill="#585858" opacity="0.9" text-anchor="start">threads / teams / context</text>
  <path d="M58 234H398" stroke="#c1beb6" opacity="0.55"/><text x="58" y="247" font-family="JetBrains Mono, SFMono-Regular, Menlo, Consolas, monospace" font-size="8.5" fill="#585858" opacity="0.7" text-anchor="start">01</text><text x="92" y="247" font-family="JetBrains Mono, SFMono-Regular, Menlo, Consolas, monospace" font-size="9.5" fill="#111111" opacity="0.86" text-anchor="start">THREADS</text><path d="M58 252H398" stroke="#c1beb6" opacity="0.55"/><text x="58" y="265" font-family="JetBrains Mono, SFMono-Regular, Menlo, Consolas, monospace" font-size="8.5" fill="#585858" opacity="0.7" text-anchor="start">02</text><text x="92" y="265" font-family="JetBrains Mono, SFMono-Regular, Menlo, Consolas, monospace" font-size="9.5" fill="#111111" opacity="0.86" text-anchor="start">TEAMS</text><path d="M58 270H398" stroke="#c1beb6" opacity="0.55"/><text x="58" y="283" font-family="JetBrains Mono, SFMono-Regular, Menlo, Consolas, monospace" font-size="8.5" fill="#585858" opacity="0.7" text-anchor="start">03</text><text x="92" y="283" font-family="JetBrains Mono, SFMono-Regular, Menlo, Consolas, monospace" font-size="9.5" fill="#111111" opacity="0.86" text-anchor="start">CONTEXT</text><path d="M58 288H398" stroke="#c1beb6" opacity="0.55"/>


  <rect x="486" y="96" width="636" height="196" fill="#fbfaf7" stroke="#c1beb6"/>
  <g clip-path="url(#channels-light-svg-diagram)">
    <path d="M526 96V292" stroke="#dedbd4" opacity="0.24"/><path d="M566 96V292" stroke="#dedbd4" opacity="0.24"/><path d="M606 96V292" stroke="#dedbd4" opacity="0.24"/><path d="M646 96V292" stroke="#dedbd4" opacity="0.24"/><path d="M686 96V292" stroke="#dedbd4" opacity="0.24"/><path d="M726 96V292" stroke="#dedbd4" opacity="0.24"/><path d="M766 96V292" stroke="#dedbd4" opacity="0.24"/><path d="M806 96V292" stroke="#dedbd4" opacity="0.24"/><path d="M846 96V292" stroke="#dedbd4" opacity="0.24"/><path d="M886 96V292" stroke="#dedbd4" opacity="0.24"/><path d="M926 96V292" stroke="#dedbd4" opacity="0.24"/><path d="M966 96V292" stroke="#dedbd4" opacity="0.24"/><path d="M1006 96V292" stroke="#dedbd4" opacity="0.24"/><path d="M1046 96V292" stroke="#dedbd4" opacity="0.24"/><path d="M1086 96V292" stroke="#dedbd4" opacity="0.24"/><path d="M486 136H1122" stroke="#dedbd4" opacity="0.24"/><path d="M486 176H1122" stroke="#dedbd4" opacity="0.24"/><path d="M486 216H1122" stroke="#dedbd4" opacity="0.24"/><path d="M486 256H1122" stroke="#dedbd4" opacity="0.24"/>

  <g transform="translate(804 194) scale(0.78) translate(-804 -194)">
    <path d="M592 112L804 186" stroke="#c1beb6"/><path d="M1020 118L804 186" stroke="#c1beb6"/><path d="M584 258L804 186" stroke="#c1beb6"/><path d="M1014 262L804 186" stroke="#c1beb6"/><rect x="538" y="88" width="108" height="48" fill="#ebe9e4" stroke="#c1beb6"/><text x="592" y="116" font-family="JetBrains Mono, SFMono-Regular, Menlo, Consolas, monospace" font-size="11" fill="#111111" opacity="0.95" text-anchor="middle">TEAM</text><rect x="966" y="94" width="108" height="48" fill="#ebe9e4" stroke="#c1beb6"/><text x="1020" y="122" font-family="JetBrains Mono, SFMono-Regular, Menlo, Consolas, monospace" font-size="11" fill="#111111" opacity="0.95" text-anchor="middle">OPS</text><rect x="530" y="234" width="108" height="48" fill="#ebe9e4" stroke="#c1beb6"/><text x="584" y="262" font-family="JetBrains Mono, SFMono-Regular, Menlo, Consolas, monospace" font-size="11" fill="#111111" opacity="0.95" text-anchor="middle">USER</text><rect x="960" y="238" width="108" height="48" fill="#ebe9e4" stroke="#c1beb6"/><text x="1014" y="266" font-family="JetBrains Mono, SFMono-Regular, Menlo, Consolas, monospace" font-size="11" fill="#111111" opacity="0.95" text-anchor="middle">BOT</text><rect x="750" y="162" width="108" height="48" fill="#ffffff" stroke="#ff6a00"/><text x="804" y="190" font-family="JetBrains Mono, SFMono-Regular, Menlo, Consolas, monospace" font-size="11" fill="#ff6a00" opacity="0.95" text-anchor="middle">CHANNEL</text>
  </g>
  </g>
  <rect x="486" y="96" width="636" height="196" fill="none" stroke="#c1beb6"/>

  <text x="56" y="324" font-family="JetBrains Mono, SFMono-Regular, Menlo, Consolas, monospace" font-size="10" fill="#8a8a84" opacity="0.72" text-anchor="start" dominant-baseline="middle">DOCS</text>
  <text x="1120" y="324" font-family="JetBrains Mono, SFMono-Regular, Menlo, Consolas, monospace" font-size="10" fill="#8a8a84" opacity="0.72" text-anchor="end" dominant-baseline="middle">ROUTING</text>
</svg>
