<svg xmlns="http://www.w3.org/2000/svg" viewBox="0 0 1200 380">
  <defs>
    <clipPath id="chat-conversations-audio-dark-svg-diagram"><rect x="486" y="96" width="636" height="196"/></clipPath>
  </defs>
  <rect width="1200" height="380" fill="#050505"/>
  <path d="M0 0V380" stroke="#1a1a1a" opacity="0.28"/><path d="M40 0V380" stroke="#1a1a1a" opacity="0.28"/><path d="M80 0V380" stroke="#1a1a1a" opacity="0.28"/><path d="M120 0V380" stroke="#1a1a1a" opacity="0.28"/><path d="M160 0V380" stroke="#1a1a1a" opacity="0.28"/><path d="M200 0V380" stroke="#1a1a1a" opacity="0.28"/><path d="M240 0V380" stroke="#1a1a1a" opacity="0.28"/><path d="M280 0V380" stroke="#1a1a1a" opacity="0.28"/><path d="M320 0V380" stroke="#1a1a1a" opacity="0.28"/><path d="M360 0V380" stroke="#1a1a1a" opacity="0.28"/><path d="M400 0V380" stroke="#1a1a1a" opacity="0.28"/><path d="M440 0V380" stroke="#1a1a1a" opacity="0.28"/><path d="M480 0V380" stroke="#1a1a1a" opacity="0.28"/><path d="M520 0V380" stroke="#1a1a1a" opacity="0.28"/><path d="M560 0V380" stroke="#1a1a1a" opacity="0.28"/><path d="M600 0V380" stroke="#1a1a1a" opacity="0.28"/><path d="M640 0V380" stroke="#1a1a1a" opacity="0.28"/><path d="M680 0V380" stroke="#1a1a1a" opacity="0.28"/><path d="M720 0V380" stroke="#1a1a1a" opacity="0.28"/><path d="M760 0V380" stroke="#1a1a1a" opacity="0.28"/><path d="M800 0V380" stroke="#1a1a1a" opacity="0.28"/><path d="M840 0V380" stroke="#1a1a1a" opacity="0.28"/><path d="M880 0V380" stroke="#1a1a1a" opacity="0.28"/><path d="M920 0V380" stroke="#1a1a1a" opacity="0.28"/><path d="M960 0V380" stroke="#1a1a1a" opacity="0.28"/><path d="M1000 0V380" stroke="#1a1a1a" opacity="0.28"/><path d="M1040 0V380" stroke="#1a1a1a" opacity="0.28"/><path d="M1080 0V380" stroke="#1a1a1a" opacity="0.28"/><path d="M1120 0V380" stroke="#1a1a1a" opacity="0.28"/><path d="M1160 0V380" stroke="#1a1a1a" opacity="0.28"/><path d="M1200 0V380" stroke="#1a1a1a" opacity="0.28"/><path d="M0 0H1200" stroke="#1a1a1a" opacity="0.28"/><path d="M0 40H1200" stroke="#1a1a1a" opacity="0.28"/><path d="M0 80H1200" stroke="#1a1a1a" opacity="0.28"/><path d="M0 120H1200" stroke="#1a1a1a" opacity="0.28"/><path d="M0 160H1200" stroke="#1a1a1a" opacity="0.28"/><path d="M0 200H1200" stroke="#1a1a1a" opacity="0.28"/><path d="M0 240H1200" stroke="#1a1a1a" opacity="0.28"/><path d="M0 280H1200" stroke="#1a1a1a" opacity="0.28"/><path d="M0 320H1200" stroke="#1a1a1a" opacity="0.28"/><path d="M0 360H1200" stroke="#1a1a1a" opacity="0.28"/>
  <rect x="32" y="32" width="1136" height="316" fill="none" stroke="#3a3a3a" stroke-width="1"/>
  <path d="M32 86H1168M432 32V348M32 300H1168" stroke="#3a3a3a" stroke-width="1"/>

  <text x="56" y="64" font-family="JetBrains Mono, SFMono-Regular, Menlo, Consolas, monospace" font-size="12" fill="#9a9a9a" opacity="0.9" text-anchor="start">OPEN WEBUI</text>
  <text x="56" y="110" font-family="JetBrains Mono, SFMono-Regular, Menlo, Consolas, monospace" font-size="12" fill="#ff6a00" opacity="1" text-anchor="start">VOICE INTERFACE</text>
  <text x="54" y="160" font-family="Helvetica Neue, Helvetica, Arial, sans-serif" font-size="36" font-weight="400" fill="#f5f5f5" opacity="1" text-anchor="start">Audio</text>
  <text x="58" y="198" font-family="Helvetica Neue, Helvetica, Arial, sans-serif" font-size="17" font-weight="350" fill="#9a9a9a" opacity="0.9" text-anchor="start">speech / playback / notes</text>
  <path d="M58 234H398" stroke="#3a3a3a" opacity="0.55"/><text x="58" y="247" font-family="JetBrains Mono, SFMono-Regular, Menlo, Consolas, monospace" font-size="8.5" fill="#9a9a9a" opacity="0.7" text-anchor="start">01</text><text x="92" y="247" font-family="JetBrains Mono, SFMono-Regular, Menlo, Consolas, monospace" font-size="9.5" fill="#f5f5f5" opacity="0.86" text-anchor="start">SPEECH</text><path d="M58 252H398" stroke="#3a3a3a" opacity="0.55"/><text x="58" y="265" font-family="JetBrains Mono, SFMono-Regular, Menlo, Consolas, monospace" font-size="8.5" fill="#9a9a9a" opacity="0.7" text-anchor="start">02</text><text x="92" y="265" font-family="JetBrains Mono, SFMono-Regular, Menlo, Consolas, monospace" font-size="9.5" fill="#f5f5f5" opacity="0.86" text-anchor="start">PLAYBACK</text><path d="M58 270H398" stroke="#3a3a3a" opacity="0.55"/><text x="58" y="283" font-family="JetBrains Mono, SFMono-Regular, Menlo, Consolas, monospace" font-size="8.5" fill="#9a9a9a" opacity="0.7" text-anchor="start">03</text><text x="92" y="283" font-family="JetBrains Mono, SFMono-Regular, Menlo, Consolas, monospace" font-size="9.5" fill="#f5f5f5" opacity="0.86" text-anchor="start">NOTES</text><path d="M58 288H398" stroke="#3a3a3a" opacity="0.55"/>


  <rect x="486" y="96" width="636" height="196" fill="#0f0f0f" stroke="#3a3a3a"/>
  <g clip-path="url(#chat-conversations-audio-dark-svg-diagram)">
    <path d="M526 96V292" stroke="#1a1a1a" opacity="0.24"/><path d="M566 96V292" stroke="#1a1a1a" opacity="0.24"/><path d="M606 96V292" stroke="#1a1a1a" opacity="0.24"/><path d="M646 96V292" stroke="#1a1a1a" opacity="0.24"/><path d="M686 96V292" stroke="#1a1a1a" opacity="0.24"/><path d="M726 96V292" stroke="#1a1a1a" opacity="0.24"/><path d="M766 96V292" stroke="#1a1a1a" opacity="0.24"/><path d="M806 96V292" stroke="#1a1a1a" opacity="0.24"/><path d="M846 96V292" stroke="#1a1a1a" opacity="0.24"/><path d="M886 96V292" stroke="#1a1a1a" opacity="0.24"/><path d="M926 96V292" stroke="#1a1a1a" opacity="0.24"/><path d="M966 96V292" stroke="#1a1a1a" opacity="0.24"/><path d="M1006 96V292" stroke="#1a1a1a" opacity="0.24"/><path d="M1046 96V292" stroke="#1a1a1a" opacity="0.24"/><path d="M1086 96V292" stroke="#1a1a1a" opacity="0.24"/><path d="M486 136H1122" stroke="#1a1a1a" opacity="0.24"/><path d="M486 176H1122" stroke="#1a1a1a" opacity="0.24"/><path d="M486 216H1122" stroke="#1a1a1a" opacity="0.24"/><path d="M486 256H1122" stroke="#1a1a1a" opacity="0.24"/>

  <g transform="translate(804 194) scale(0.78) translate(-804 -194)">
    <path d="M540 190H1070" stroke="#3a3a3a"/><rect x="560" y="181" width="5" height="18" fill="#f5f5f5" opacity="0.36"/><rect x="574" y="158.5" width="5" height="63" fill="#f5f5f5" opacity="0.36"/><rect x="588" y="146.5" width="5" height="87" fill="#f5f5f5" opacity="0.36"/><rect x="602" y="151" width="5" height="78" fill="#f5f5f5" opacity="0.36"/><rect x="616" y="169.5" width="5" height="41" fill="#f5f5f5" opacity="0.36"/><rect x="630" y="168.5" width="5" height="43" fill="#f5f5f5" opacity="0.36"/><rect x="644" y="150.5" width="5" height="79" fill="#f5f5f5" opacity="0.36"/><rect x="658" y="146.5" width="5" height="87" fill="#f5f5f5" opacity="0.36"/><rect x="672" y="159" width="5" height="62" fill="#f5f5f5" opacity="0.36"/><rect x="686" y="180.5" width="5" height="19" fill="#f5f5f5" opacity="0.36"/><rect x="700" y="158" width="5" height="64" fill="#f5f5f5" opacity="0.36"/><rect x="714" y="146.5" width="5" height="87" fill="#f5f5f5" opacity="0.36"/><rect x="728" y="151" width="5" height="78" fill="#f5f5f5" opacity="0.36"/><rect x="742" y="170" width="5" height="40" fill="#f5f5f5" opacity="0.36"/><rect x="756" y="168" width="5" height="44" fill="#ff6a00" opacity="0.82"/><rect x="770" y="150" width="5" height="80" fill="#ff6a00" opacity="0.82"/><rect x="784" y="146.5" width="5" height="87" fill="#ff6a00" opacity="0.82"/><rect x="798" y="159.5" width="5" height="61" fill="#ff6a00" opacity="0.82"/><rect x="812" y="180" width="5" height="20" fill="#ff6a00" opacity="0.82"/><rect x="826" y="157.5" width="5" height="65" fill="#ff6a00" opacity="0.82"/><rect x="840" y="146.5" width="5" height="87" fill="#f5f5f5" opacity="0.36"/><rect x="854" y="151.5" width="5" height="77" fill="#f5f5f5" opacity="0.36"/><rect x="868" y="170.5" width="5" height="39" fill="#f5f5f5" opacity="0.36"/><rect x="882" y="167.5" width="5" height="45" fill="#f5f5f5" opacity="0.36"/><rect x="896" y="150" width="5" height="80" fill="#f5f5f5" opacity="0.36"/><rect x="910" y="147" width="5" height="86" fill="#f5f5f5" opacity="0.36"/><rect x="924" y="160" width="5" height="60" fill="#f5f5f5" opacity="0.36"/><rect x="938" y="179" width="5" height="22" fill="#f5f5f5" opacity="0.36"/><rect x="952" y="157" width="5" height="66" fill="#f5f5f5" opacity="0.36"/><rect x="966" y="146.5" width="5" height="87" fill="#f5f5f5" opacity="0.36"/><rect x="980" y="151.5" width="5" height="77" fill="#f5f5f5" opacity="0.36"/><rect x="994" y="171" width="5" height="38" fill="#f5f5f5" opacity="0.36"/><rect x="1008" y="167" width="5" height="46" fill="#f5f5f5" opacity="0.36"/><rect x="1022" y="149.5" width="5" height="81" fill="#f5f5f5" opacity="0.36"/><rect x="612" y="252" width="382" height="28" fill="#161616" stroke="#3a3a3a"/><text x="632" y="271" font-family="JetBrains Mono, SFMono-Regular, Menlo, Consolas, monospace" font-size="11" fill="#9a9a9a" opacity="1" text-anchor="start">TRANSCRIPT / 00:34</text>
  </g>
  </g>
  <rect x="486" y="96" width="636" height="196" fill="none" stroke="#3a3a3a"/>

  <text x="56" y="324" font-family="JetBrains Mono, SFMono-Regular, Menlo, Consolas, monospace" font-size="10" fill="#606060" opacity="0.72" text-anchor="start" dominant-baseline="middle">DOCS</text>
  <text x="1120" y="324" font-family="JetBrains Mono, SFMono-Regular, Menlo, Consolas, monospace" font-size="10" fill="#606060" opacity="0.72" text-anchor="end" dominant-baseline="middle">AUDIO</text>
</svg>
