<svg xmlns="http://www.w3.org/2000/svg" viewBox="0 0 1200 380">
  <defs>
    <clipPath id="getting-started-light-svg-diagram"><rect x="486" y="96" width="636" height="196"/></clipPath>
  </defs>
  <rect width="1200" height="380" fill="#ffffff"/>
  <path d="M0 0V380" stroke="#eceff2" opacity="0.28"/><path d="M40 0V380" stroke="#eceff2" opacity="0.28"/><path d="M80 0V380" stroke="#eceff2" opacity="0.28"/><path d="M120 0V380" stroke="#eceff2" opacity="0.28"/><path d="M160 0V380" stroke="#eceff2" opacity="0.28"/><path d="M200 0V380" stroke="#eceff2" opacity="0.28"/><path d="M240 0V380" stroke="#eceff2" opacity="0.28"/><path d="M280 0V380" stroke="#eceff2" opacity="0.28"/><path d="M320 0V380" stroke="#eceff2" opacity="0.28"/><path d="M360 0V380" stroke="#eceff2" opacity="0.28"/><path d="M400 0V380" stroke="#eceff2" opacity="0.28"/><path d="M440 0V380" stroke="#eceff2" opacity="0.28"/><path d="M480 0V380" stroke="#eceff2" opacity="0.28"/><path d="M520 0V380" stroke="#eceff2" opacity="0.28"/><path d="M560 0V380" stroke="#eceff2" opacity="0.28"/><path d="M600 0V380" stroke="#eceff2" opacity="0.28"/><path d="M640 0V380" stroke="#eceff2" opacity="0.28"/><path d="M680 0V380" stroke="#eceff2" opacity="0.28"/><path d="M720 0V380" stroke="#eceff2" opacity="0.28"/><path d="M760 0V380" stroke="#eceff2" opacity="0.28"/><path d="M800 0V380" stroke="#eceff2" opacity="0.28"/><path d="M840 0V380" stroke="#eceff2" opacity="0.28"/><path d="M880 0V380" stroke="#eceff2" opacity="0.28"/><path d="M920 0V380" stroke="#eceff2" opacity="0.28"/><path d="M960 0V380" stroke="#eceff2" opacity="0.28"/><path d="M1000 0V380" stroke="#eceff2" opacity="0.28"/><path d="M1040 0V380" stroke="#eceff2" opacity="0.28"/><path d="M1080 0V380" stroke="#eceff2" opacity="0.28"/><path d="M1120 0V380" stroke="#eceff2" opacity="0.28"/><path d="M1160 0V380" stroke="#eceff2" opacity="0.28"/><path d="M1200 0V380" stroke="#eceff2" opacity="0.28"/><path d="M0 0H1200" stroke="#eceff2" opacity="0.28"/><path d="M0 40H1200" stroke="#eceff2" opacity="0.28"/><path d="M0 80H1200" stroke="#eceff2" opacity="0.28"/><path d="M0 120H1200" stroke="#eceff2" opacity="0.28"/><path d="M0 160H1200" stroke="#eceff2" opacity="0.28"/><path d="M0 200H1200" stroke="#eceff2" opacity="0.28"/><path d="M0 240H1200" stroke="#eceff2" opacity="0.28"/><path d="M0 280H1200" stroke="#eceff2" opacity="0.28"/><path d="M0 320H1200" stroke="#eceff2" opacity="0.28"/><path d="M0 360H1200" stroke="#eceff2" opacity="0.28"/>
  <rect x="32" y="32" width="1136" height="316" fill="none" stroke="#d4d7dc" stroke-width="1"/>
  <path d="M32 86H1168M432 32V348M32 300H1168" stroke="#d4d7dc" stroke-width="1"/>

  <text x="56" y="64" font-family="JetBrains Mono, SFMono-Regular, Menlo, Consolas, monospace" font-size="12" fill="#585858" opacity="0.9" text-anchor="start">OPEN WEBUI</text>
  <text x="56" y="110" font-family="JetBrains Mono, SFMono-Regular, Menlo, Consolas, monospace" font-size="12" fill="#ff6a00" opacity="1" text-anchor="start">LAUNCH PATH</text>
  <text x="54" y="160" font-family="Helvetica Neue, Helvetica, Arial, sans-serif" font-size="36" font-weight="400" fill="#111111" opacity="1" text-anchor="start">Getting Started</text>
  <text x="58" y="198" font-family="Helvetica Neue, Helvetica, Arial, sans-serif" font-size="17" font-weight="350" fill="#585858" opacity="0.9" text-anchor="start">install / connect / chat</text>
  <path d="M58 234H398" stroke="#d4d7dc" opacity="0.55"/><text x="58" y="247" font-family="JetBrains Mono, SFMono-Regular, Menlo, Consolas, monospace" font-size="8.5" fill="#585858" opacity="0.7" text-anchor="start">01</text><text x="92" y="247" font-family="JetBrains Mono, SFMono-Regular, Menlo, Consolas, monospace" font-size="9.5" fill="#111111" opacity="0.86" text-anchor="start">INSTALL</text><path d="M58 252H398" stroke="#d4d7dc" opacity="0.55"/><text x="58" y="265" font-family="JetBrains Mono, SFMono-Regular, Menlo, Consolas, monospace" font-size="8.5" fill="#585858" opacity="0.7" text-anchor="start">02</text><text x="92" y="265" font-family="JetBrains Mono, SFMono-Regular, Menlo, Consolas, monospace" font-size="9.5" fill="#111111" opacity="0.86" text-anchor="start">CONNECT</text><path d="M58 270H398" stroke="#d4d7dc" opacity="0.55"/><text x="58" y="283" font-family="JetBrains Mono, SFMono-Regular, Menlo, Consolas, monospace" font-size="8.5" fill="#585858" opacity="0.7" text-anchor="start">03</text><text x="92" y="283" font-family="JetBrains Mono, SFMono-Regular, Menlo, Consolas, monospace" font-size="9.5" fill="#111111" opacity="0.86" text-anchor="start">ESSENTIALS</text><path d="M58 288H398" stroke="#d4d7dc" opacity="0.55"/>


  <rect x="486" y="96" width="636" height="196" fill="#ffffff" stroke="#d4d7dc"/>
  <g clip-path="url(#getting-started-light-svg-diagram)">
    <path d="M526 96V292" stroke="#eceff2" opacity="0.24"/><path d="M566 96V292" stroke="#eceff2" opacity="0.24"/><path d="M606 96V292" stroke="#eceff2" opacity="0.24"/><path d="M646 96V292" stroke="#eceff2" opacity="0.24"/><path d="M686 96V292" stroke="#eceff2" opacity="0.24"/><path d="M726 96V292" stroke="#eceff2" opacity="0.24"/><path d="M766 96V292" stroke="#eceff2" opacity="0.24"/><path d="M806 96V292" stroke="#eceff2" opacity="0.24"/><path d="M846 96V292" stroke="#eceff2" opacity="0.24"/><path d="M886 96V292" stroke="#eceff2" opacity="0.24"/><path d="M926 96V292" stroke="#eceff2" opacity="0.24"/><path d="M966 96V292" stroke="#eceff2" opacity="0.24"/><path d="M1006 96V292" stroke="#eceff2" opacity="0.24"/><path d="M1046 96V292" stroke="#eceff2" opacity="0.24"/><path d="M1086 96V292" stroke="#eceff2" opacity="0.24"/><path d="M486 136H1122" stroke="#eceff2" opacity="0.24"/><path d="M486 176H1122" stroke="#eceff2" opacity="0.24"/><path d="M486 216H1122" stroke="#eceff2" opacity="0.24"/><path d="M486 256H1122" stroke="#eceff2" opacity="0.24"/>

  <g transform="translate(804 194) scale(0.8) translate(-804 -194)">
    <rect x="548" y="142" width="104" height="56" fill="#f6f7f8" stroke="#d4d7dc"/><text x="600" y="174" font-family="JetBrains Mono, SFMono-Regular, Menlo, Consolas, monospace" font-size="10" fill="#111111" opacity="0.95" text-anchor="middle">INSTALL</text><path d="M652 170H700" stroke="#d4d7dc"/><rect x="700" y="142" width="104" height="56" fill="#f6f7f8" stroke="#d4d7dc"/><text x="752" y="174" font-family="JetBrains Mono, SFMono-Regular, Menlo, Consolas, monospace" font-size="10" fill="#111111" opacity="0.95" text-anchor="middle">CONNECT</text><path d="M804 170H852" stroke="#d4d7dc"/><rect x="852" y="142" width="104" height="56" fill="#ff6a00" stroke="#ff6a00"/><text x="904" y="174" font-family="JetBrains Mono, SFMono-Regular, Menlo, Consolas, monospace" font-size="10" fill="#111111" opacity="0.95" text-anchor="middle">CHAT</text><path d="M956 170H1004" stroke="#d4d7dc"/><rect x="1004" y="142" width="104" height="56" fill="#f6f7f8" stroke="#d4d7dc"/><text x="1056" y="174" font-family="JetBrains Mono, SFMono-Regular, Menlo, Consolas, monospace" font-size="10" fill="#111111" opacity="0.95" text-anchor="middle">GROW</text><path d="M646 198V228" stroke="#d4d7dc"/><rect x="594" y="228" width="104" height="34" fill="#ffffff" stroke="#d4d7dc"/><text x="646" y="250" font-family="JetBrains Mono, SFMono-Regular, Menlo, Consolas, monospace" font-size="9.5" fill="#585858" opacity="0.9" text-anchor="middle">APP</text><path d="M766 198V228" stroke="#d4d7dc"/><rect x="714" y="228" width="104" height="34" fill="#ffffff" stroke="#ff6a00"/><text x="766" y="250" font-family="JetBrains Mono, SFMono-Regular, Menlo, Consolas, monospace" font-size="9.5" fill="#ff6a00" opacity="0.9" text-anchor="middle">AGENT</text><path d="M886 198V228" stroke="#d4d7dc"/><rect x="834" y="228" width="104" height="34" fill="#ffffff" stroke="#d4d7dc"/><text x="886" y="250" font-family="JetBrains Mono, SFMono-Regular, Menlo, Consolas, monospace" font-size="9.5" fill="#585858" opacity="0.9" text-anchor="middle">SHARE</text><path d="M1006 198V228" stroke="#d4d7dc"/><rect x="954" y="228" width="104" height="34" fill="#ffffff" stroke="#d4d7dc"/><text x="1006" y="250" font-family="JetBrains Mono, SFMono-Regular, Menlo, Consolas, monospace" font-size="9.5" fill="#585858" opacity="0.9" text-anchor="middle">UPDATE</text><text x="806" y="286" font-family="JetBrains Mono, SFMono-Regular, Menlo, Consolas, monospace" font-size="11" fill="#ff6a00" opacity="1" text-anchor="middle">FIRST RUN TO DAILY USE</text>
  </g>
  </g>
  <rect x="486" y="96" width="636" height="196" fill="none" stroke="#d4d7dc"/>

  <text x="56" y="324" font-family="JetBrains Mono, SFMono-Regular, Menlo, Consolas, monospace" font-size="10" fill="#888888" opacity="0.72" text-anchor="start" dominant-baseline="middle">DOCS</text>
  <text x="1120" y="324" font-family="JetBrains Mono, SFMono-Regular, Menlo, Consolas, monospace" font-size="10" fill="#888888" opacity="0.72" text-anchor="end" dominant-baseline="middle">ONBOARDING</text>
</svg>
