<svg xmlns="http://www.w3.org/2000/svg" viewBox="0 0 1200 380">
  <defs>
    <clipPath id="roadmap-dark-svg-diagram"><rect x="486" y="96" width="636" height="196"/></clipPath>
  </defs>
  <rect width="1200" height="380" fill="#050505"/>
  <path d="M0 0V380" stroke="#1a1a1a" opacity="0.28"/><path d="M40 0V380" stroke="#1a1a1a" opacity="0.28"/><path d="M80 0V380" stroke="#1a1a1a" opacity="0.28"/><path d="M120 0V380" stroke="#1a1a1a" opacity="0.28"/><path d="M160 0V380" stroke="#1a1a1a" opacity="0.28"/><path d="M200 0V380" stroke="#1a1a1a" opacity="0.28"/><path d="M240 0V380" stroke="#1a1a1a" opacity="0.28"/><path d="M280 0V380" stroke="#1a1a1a" opacity="0.28"/><path d="M320 0V380" stroke="#1a1a1a" opacity="0.28"/><path d="M360 0V380" stroke="#1a1a1a" opacity="0.28"/><path d="M400 0V380" stroke="#1a1a1a" opacity="0.28"/><path d="M440 0V380" stroke="#1a1a1a" opacity="0.28"/><path d="M480 0V380" stroke="#1a1a1a" opacity="0.28"/><path d="M520 0V380" stroke="#1a1a1a" opacity="0.28"/><path d="M560 0V380" stroke="#1a1a1a" opacity="0.28"/><path d="M600 0V380" stroke="#1a1a1a" opacity="0.28"/><path d="M640 0V380" stroke="#1a1a1a" opacity="0.28"/><path d="M680 0V380" stroke="#1a1a1a" opacity="0.28"/><path d="M720 0V380" stroke="#1a1a1a" opacity="0.28"/><path d="M760 0V380" stroke="#1a1a1a" opacity="0.28"/><path d="M800 0V380" stroke="#1a1a1a" opacity="0.28"/><path d="M840 0V380" stroke="#1a1a1a" opacity="0.28"/><path d="M880 0V380" stroke="#1a1a1a" opacity="0.28"/><path d="M920 0V380" stroke="#1a1a1a" opacity="0.28"/><path d="M960 0V380" stroke="#1a1a1a" opacity="0.28"/><path d="M1000 0V380" stroke="#1a1a1a" opacity="0.28"/><path d="M1040 0V380" stroke="#1a1a1a" opacity="0.28"/><path d="M1080 0V380" stroke="#1a1a1a" opacity="0.28"/><path d="M1120 0V380" stroke="#1a1a1a" opacity="0.28"/><path d="M1160 0V380" stroke="#1a1a1a" opacity="0.28"/><path d="M1200 0V380" stroke="#1a1a1a" opacity="0.28"/><path d="M0 0H1200" stroke="#1a1a1a" opacity="0.28"/><path d="M0 40H1200" stroke="#1a1a1a" opacity="0.28"/><path d="M0 80H1200" stroke="#1a1a1a" opacity="0.28"/><path d="M0 120H1200" stroke="#1a1a1a" opacity="0.28"/><path d="M0 160H1200" stroke="#1a1a1a" opacity="0.28"/><path d="M0 200H1200" stroke="#1a1a1a" opacity="0.28"/><path d="M0 240H1200" stroke="#1a1a1a" opacity="0.28"/><path d="M0 280H1200" stroke="#1a1a1a" opacity="0.28"/><path d="M0 320H1200" stroke="#1a1a1a" opacity="0.28"/><path d="M0 360H1200" stroke="#1a1a1a" opacity="0.28"/>
  <rect x="32" y="32" width="1136" height="316" fill="none" stroke="#3a3a3a" stroke-width="1"/>
  <path d="M32 86H1168M432 32V348M32 300H1168" stroke="#3a3a3a" stroke-width="1"/>

  <text x="56" y="64" font-family="JetBrains Mono, SFMono-Regular, Menlo, Consolas, monospace" font-size="12" fill="#9a9a9a" opacity="0.9" text-anchor="start">OPEN WEBUI</text>
  <text x="56" y="110" font-family="JetBrains Mono, SFMono-Regular, Menlo, Consolas, monospace" font-size="12" fill="#ff6a00" opacity="1" text-anchor="start">BUILDING FORWARD</text>
  <text x="54" y="160" font-family="Helvetica Neue, Helvetica, Arial, sans-serif" font-size="36" font-weight="400" fill="#f5f5f5" opacity="1" text-anchor="start">Roadmap</text>
  <text x="58" y="198" font-family="Helvetica Neue, Helvetica, Arial, sans-serif" font-size="17" font-weight="350" fill="#9a9a9a" opacity="0.9" text-anchor="start">now / next / vision</text>
  <path d="M58 234H398" stroke="#3a3a3a" opacity="0.55"/><text x="58" y="247" font-family="JetBrains Mono, SFMono-Regular, Menlo, Consolas, monospace" font-size="8.5" fill="#9a9a9a" opacity="0.7" text-anchor="start">01</text><text x="92" y="247" font-family="JetBrains Mono, SFMono-Regular, Menlo, Consolas, monospace" font-size="9.5" fill="#f5f5f5" opacity="0.86" text-anchor="start">IN PROGRESS</text><path d="M58 252H398" stroke="#3a3a3a" opacity="0.55"/><text x="58" y="265" font-family="JetBrains Mono, SFMono-Regular, Menlo, Consolas, monospace" font-size="8.5" fill="#9a9a9a" opacity="0.7" text-anchor="start">02</text><text x="92" y="265" font-family="JetBrains Mono, SFMono-Regular, Menlo, Consolas, monospace" font-size="9.5" fill="#f5f5f5" opacity="0.86" text-anchor="start">PLANNED</text><path d="M58 270H398" stroke="#3a3a3a" opacity="0.55"/><text x="58" y="283" font-family="JetBrains Mono, SFMono-Regular, Menlo, Consolas, monospace" font-size="8.5" fill="#9a9a9a" opacity="0.7" text-anchor="start">03</text><text x="92" y="283" font-family="JetBrains Mono, SFMono-Regular, Menlo, Consolas, monospace" font-size="9.5" fill="#f5f5f5" opacity="0.86" text-anchor="start">VISION</text><path d="M58 288H398" stroke="#3a3a3a" opacity="0.55"/>


  <rect x="486" y="96" width="636" height="196" fill="#0f0f0f" stroke="#3a3a3a"/>
  <g clip-path="url(#roadmap-dark-svg-diagram)">
    <path d="M526 96V292" stroke="#1a1a1a" opacity="0.24"/><path d="M566 96V292" stroke="#1a1a1a" opacity="0.24"/><path d="M606 96V292" stroke="#1a1a1a" opacity="0.24"/><path d="M646 96V292" stroke="#1a1a1a" opacity="0.24"/><path d="M686 96V292" stroke="#1a1a1a" opacity="0.24"/><path d="M726 96V292" stroke="#1a1a1a" opacity="0.24"/><path d="M766 96V292" stroke="#1a1a1a" opacity="0.24"/><path d="M806 96V292" stroke="#1a1a1a" opacity="0.24"/><path d="M846 96V292" stroke="#1a1a1a" opacity="0.24"/><path d="M886 96V292" stroke="#1a1a1a" opacity="0.24"/><path d="M926 96V292" stroke="#1a1a1a" opacity="0.24"/><path d="M966 96V292" stroke="#1a1a1a" opacity="0.24"/><path d="M1006 96V292" stroke="#1a1a1a" opacity="0.24"/><path d="M1046 96V292" stroke="#1a1a1a" opacity="0.24"/><path d="M1086 96V292" stroke="#1a1a1a" opacity="0.24"/><path d="M486 136H1122" stroke="#1a1a1a" opacity="0.24"/><path d="M486 176H1122" stroke="#1a1a1a" opacity="0.24"/><path d="M486 216H1122" stroke="#1a1a1a" opacity="0.24"/><path d="M486 256H1122" stroke="#1a1a1a" opacity="0.24"/>

  <g transform="translate(804 194) scale(0.8) translate(-804 -194)">
    <rect x="548" y="132" width="166" height="94" fill="#161616" stroke="#3a3a3a"/><text x="631" y="160" font-family="JetBrains Mono, SFMono-Regular, Menlo, Consolas, monospace" font-size="10" fill="#f5f5f5" opacity="0.95" text-anchor="middle">NOW</text><path d="M576 186H686M576 204H668" stroke="#3a3a3a" stroke-width="1"/><path d="M714 179H724" stroke="#3a3a3a"/><rect x="724" y="132" width="166" height="94" fill="#000000" stroke="#ff6a00"/><text x="807" y="160" font-family="JetBrains Mono, SFMono-Regular, Menlo, Consolas, monospace" font-size="10" fill="#ff6a00" opacity="0.95" text-anchor="middle">NEXT</text><path d="M752 186H862M752 204H844" stroke="#ff6a00" stroke-width="2"/><path d="M890 179H900" stroke="#3a3a3a"/><rect x="900" y="132" width="166" height="94" fill="#161616" stroke="#3a3a3a"/><text x="983" y="160" font-family="JetBrains Mono, SFMono-Regular, Menlo, Consolas, monospace" font-size="10" fill="#f5f5f5" opacity="0.95" text-anchor="middle">VISION</text><path d="M928 186H1038M928 204H1020" stroke="#3a3a3a" stroke-width="1"/><path d="M584 262H1036" stroke="#ff6a00" stroke-width="2"/><path d="M1036 262l-20-12M1036 262l-20 12" stroke="#ff6a00" stroke-width="2"/><text x="810" y="292" font-family="JetBrains Mono, SFMono-Regular, Menlo, Consolas, monospace" font-size="10" fill="#ff6a00" opacity="1" text-anchor="middle">SHIP / LEARN / EXPAND</text>
  </g>
  </g>
  <rect x="486" y="96" width="636" height="196" fill="none" stroke="#3a3a3a"/>

  <text x="56" y="324" font-family="JetBrains Mono, SFMono-Regular, Menlo, Consolas, monospace" font-size="10" fill="#606060" opacity="0.72" text-anchor="start" dominant-baseline="middle">DOCS</text>
  <text x="1120" y="324" font-family="JetBrains Mono, SFMono-Regular, Menlo, Consolas, monospace" font-size="10" fill="#606060" opacity="0.72" text-anchor="end" dominant-baseline="middle">ROADMAP</text>
</svg>
